<svg width="16" height="15" viewBox="0 0 16 15" fill="none" xmlns="http://www.w3.org/2000/svg">
<path fill-rule="evenodd" clip-rule="evenodd" d="M7.36111 8.38507C6.47298 8.25138 5.56513 8.37683 4.74652 8.74635C3.92791 9.11586 3.23333 9.71376 2.74612 10.4683C2.25892 11.2228 1.99979 12.1019 1.99984 13C1.99986 13.3682 1.7014 13.6667 1.33321 13.6667C0.965017 13.6667 0.666524 13.3683 0.666504 13.0001C0.666441 11.8453 0.999605 10.7151 1.62601 9.74499C2.25242 8.7749 3.14546 8.00618 4.19795 7.53109C5.25045 7.05599 6.41768 6.89471 7.55957 7.06659C8.70146 7.23846 9.7695 7.73621 10.6355 8.50008C10.9116 8.74364 10.938 9.16492 10.6945 9.44104C10.4509 9.71716 10.0296 9.74356 9.7535 9.5C9.07995 8.90588 8.24925 8.51875 7.36111 8.38507Z" fill="#1F2937"/>
<path fill-rule="evenodd" clip-rule="evenodd" d="M6.6665 1.66671C5.19374 1.66671 3.99984 2.86061 3.99984 4.33337C3.99984 5.80613 5.19374 7.00004 6.6665 7.00004C8.13926 7.00004 9.33317 5.80613 9.33317 4.33337C9.33317 2.86061 8.13926 1.66671 6.6665 1.66671ZM2.6665 4.33337C2.6665 2.12424 4.45736 0.333374 6.6665 0.333374C8.87564 0.333374 10.6665 2.12424 10.6665 4.33337C10.6665 6.54251 8.87564 8.33337 6.6665 8.33337C4.45736 8.33337 2.6665 6.54251 2.6665 4.33337Z" fill="#1F2937"/>
<path fill-rule="evenodd" clip-rule="evenodd" d="M12.6665 9.00004C13.0347 9.00004 13.3332 9.29852 13.3332 9.66671V11H14.6665C15.0347 11 15.3332 11.2985 15.3332 11.6667C15.3332 12.0349 15.0347 12.3334 14.6665 12.3334H13.3332V13.6667C13.3332 14.0349 13.0347 14.3334 12.6665 14.3334C12.2983 14.3334 11.9998 14.0349 11.9998 13.6667V12.3334H10.6665C10.2983 12.3334 9.99984 12.0349 9.99984 11.6667C9.99984 11.2985 10.2983 11 10.6665 11H11.9998V9.66671C11.9998 9.29852 12.2983 9.00004 12.6665 9.00004Z" fill="#1F2937"/>
</svg>
