<svg width="22" height="20" viewBox="0 0 22 20" fill="none" xmlns="http://www.w3.org/2000/svg">
<path fill-rule="evenodd" clip-rule="evenodd" d="M2.63604 12.636C4.32387 10.9482 6.61305 10 9 10C11.3869 10 13.6761 10.9482 15.364 12.636C17.0518 14.3239 18 16.6131 18 19C18 19.5523 17.5523 20 17 20C16.4477 20 16 19.5523 16 19C16 17.1435 15.2625 15.363 13.9497 14.0503C12.637 12.7375 10.8565 12 9 12C7.14348 12 5.36301 12.7375 4.05025 14.0503C2.7375 15.363 2 17.1435 2 19C2 19.5523 1.55228 20 1 20C0.447715 20 0 19.5523 0 19C0 16.6131 0.948212 14.3239 2.63604 12.636Z" fill="#1F2937"/>
<path fill-rule="evenodd" clip-rule="evenodd" d="M9 2C6.79086 2 5 3.79086 5 6C5 8.20914 6.79086 10 9 10C11.2091 10 13 8.20914 13 6C13 3.79086 11.2091 2 9 2ZM3 6C3 2.68629 5.68629 0 9 0C12.3137 0 15 2.68629 15 6C15 9.31371 12.3137 12 9 12C5.68629 12 3 9.31371 3 6Z" fill="#1F2937"/>
<path fill-rule="evenodd" clip-rule="evenodd" d="M15.6899 1.18987C15.9716 0.714852 16.5851 0.558166 17.0601 0.839903C17.9084 1.34302 18.6196 2.04748 19.1307 2.89094C19.6418 3.73441 19.9372 4.69086 19.9906 5.67566C20.0439 6.66047 19.8538 7.64324 19.4368 8.53702C19.193 9.0597 18.876 9.54251 18.4971 9.9717C20.3686 11.7948 22 14.7784 22 18C22 18.5523 21.5523 19 21 19C20.4477 19 20 18.5523 20 18C20 14.9892 18.186 12.1395 16.4 10.8C16.1482 10.6112 16 10.3148 16 10.0001C16 9.68535 16.1481 9.38898 16.3999 9.2001C16.9258 8.80551 17.3464 8.28737 17.6243 7.69151C17.9023 7.09566 18.0291 6.44047 17.9935 5.78394C17.9579 5.1274 17.761 4.48977 17.4202 3.92746C17.0795 3.36515 16.6054 2.89551 16.0399 2.5601C15.5649 2.27836 15.4082 1.66489 15.6899 1.18987Z" fill="#1F2937"/>
</svg>
