<svg width="16" height="16" viewBox="0 0 16 16" fill="none" xmlns="http://www.w3.org/2000/svg">
<path fill-rule="evenodd" clip-rule="evenodd" d="M12.1951 7.52857C12.4555 7.26822 12.8776 7.26822 13.1379 7.52857L15.1379 9.52857C15.3983 9.78892 15.3983 10.211 15.1379 10.4714L10.4713 15.138C10.2109 15.3984 9.7888 15.3984 9.52845 15.138L7.52845 13.138C7.2681 12.8777 7.2681 12.4556 7.52845 12.1952L12.1951 7.52857ZM8.94266 12.6666L9.99985 13.7238L13.7237 9.99997L12.6665 8.94278L8.94266 12.6666Z" fill="#1F2937"/>
<path fill-rule="evenodd" clip-rule="evenodd" d="M0.86178 0.861902C1.026 0.69768 1.26385 0.630758 1.48961 0.685251L11.1563 3.01858C11.4086 3.0795 11.6027 3.28135 11.6536 3.5359L12.6536 8.5359C12.6973 8.75447 12.6289 8.98043 12.4713 9.13804L9.13792 12.4714C8.98031 12.629 8.75435 12.6974 8.53577 12.6537L3.53577 11.6537C3.28122 11.6028 3.07937 11.4087 3.01846 11.1564L0.685129 1.48973C0.630635 1.26397 0.697558 1.02612 0.86178 0.861902ZM2.5372 3.48013L4.21469 10.4297L8.4474 11.2763L11.2762 8.44752L10.4296 4.21481L3.48 2.53732L6.86192 5.91924C7.12227 6.17958 7.12227 6.6017 6.86192 6.86204C6.60157 7.12239 6.17946 7.12239 5.91911 6.86204L2.5372 3.48013Z" fill="#1F2937"/>
<path fill-rule="evenodd" clip-rule="evenodd" d="M7.33318 6.66664C6.96499 6.66664 6.66652 6.96512 6.66652 7.33331C6.66652 7.7015 6.96499 7.99997 7.33318 7.99997C7.70137 7.99997 7.99985 7.7015 7.99985 7.33331C7.99985 6.96512 7.70137 6.66664 7.33318 6.66664ZM5.33318 7.33331C5.33318 6.22874 6.22862 5.33331 7.33318 5.33331C8.43775 5.33331 9.33319 6.22874 9.33319 7.33331C9.33319 8.43788 8.43775 9.33331 7.33318 9.33331C6.22862 9.33331 5.33318 8.43788 5.33318 7.33331Z" fill="#1F2937"/>
</svg>
